<svg width="195" height="58" viewBox="0 0 195 58" fill="none" xmlns="http://www.w3.org/2000/svg">
<rect width="195" height="58" rx="29" fill="white"/>
<ellipse cx="29.3521" cy="28.6629" rx="22.9598" ry="22.9598" fill="white"/>
<path d="M58.2351 25.9772V15.5561C58.2351 14.9662 58.1499 14.4943 57.9795 14.1404C57.8222 13.7734 57.4486 13.5899 56.8587 13.5899H56.6621V13H61.971C62.5871 13 63.2294 13.0393 63.8979 13.118C64.5795 13.1835 65.2087 13.3343 65.7855 13.5702C66.3754 13.7931 66.8538 14.1339 67.2209 14.5927C67.5879 15.0515 67.7714 15.6675 67.7714 16.4409C67.7714 17.0046 67.542 17.5617 67.0832 18.1122C66.6375 18.6497 65.9559 19.0364 65.0383 19.2723C65.9035 19.351 66.572 19.5411 67.0439 19.8425C67.5289 20.144 67.8697 20.5176 68.0663 20.9633C68.263 21.3959 68.3613 21.8678 68.3613 22.379C68.3613 23.1262 68.1909 23.7357 67.8501 24.2076C67.5224 24.6795 67.0767 25.0465 66.513 25.3087C65.9494 25.5578 65.3202 25.7347 64.6254 25.8396C63.9438 25.9314 63.2556 25.9772 62.5609 25.9772H58.2351ZM60.7912 18.8791H62.2659C63.0655 18.8791 63.7209 18.689 64.2322 18.3089C64.7565 17.9287 65.0187 17.2733 65.0187 16.3426C65.0187 15.6872 64.8679 15.176 64.5664 14.8089C64.278 14.4419 63.8979 14.1797 63.426 14.0224C62.9672 13.8651 62.4822 13.7865 61.971 13.7865C61.8137 13.7865 61.6629 13.7931 61.5187 13.8062C61.3746 13.8193 61.25 13.8389 61.1452 13.8651L60.7912 13.9241V18.8791ZM62.1676 25.1907H62.2659C63.3539 25.1907 64.1797 24.9548 64.7434 24.4829C65.3202 24.011 65.6085 23.3425 65.6085 22.4773C65.6085 20.6684 64.4943 19.7639 62.2659 19.7639H60.7912V24.9941C60.8568 25.0072 60.9223 25.0269 60.9879 25.0531C61.0534 25.0662 61.1189 25.0793 61.1845 25.0924C61.4729 25.158 61.8006 25.1907 62.1676 25.1907Z" fill="#0A3E19"/>
<path d="M74.2709 26.1739C73.3534 26.1739 72.5537 25.9641 71.8721 25.5447C71.1905 25.1252 70.6661 24.555 70.2991 23.834C69.9321 23.1 69.7486 22.2741 69.7486 21.3566C69.7486 20.3079 69.9386 19.4296 70.3188 18.7218C70.6989 18.0008 71.2167 17.4568 71.8721 17.0898C72.5275 16.7228 73.2616 16.5392 74.0743 16.5392C74.887 16.5392 75.6211 16.7031 76.2765 17.0308C76.9319 17.3585 77.4497 17.8173 77.8298 18.4072C78.21 18.9971 78.4001 19.6852 78.4001 20.4717C78.4001 20.6159 78.3935 20.7667 78.3804 20.924C78.3804 21.0682 78.3738 21.1993 78.3607 21.3172L78.3214 21.7105H72.403C72.403 23.0082 72.5996 23.9323 72.9929 24.4829C73.3992 25.0203 73.9236 25.289 74.5659 25.289C75.2475 25.289 75.7981 25.1318 76.2175 24.8172C76.6501 24.5026 77.0368 24.1159 77.3776 23.6571L77.9871 24.1093C77.8036 24.3977 77.5546 24.7057 77.24 25.0334C76.9385 25.348 76.5452 25.6168 76.0602 25.8396C75.5883 26.0624 74.9919 26.1739 74.2709 26.1739ZM72.403 20.8257H75.7456C75.7456 19.5279 75.5883 18.6366 75.2737 18.1516C74.9722 17.6666 74.5724 17.4241 74.0743 17.4241C73.7859 17.4241 73.5107 17.5289 73.2485 17.7387C72.9994 17.9484 72.7963 18.3023 72.639 18.8004C72.4817 19.2854 72.403 19.9605 72.403 20.8257Z" fill="#0A3E19"/>
<path d="M80.5981 25.9772V19.292C80.5981 18.7021 80.5195 18.2302 80.3622 17.8763C80.2049 17.5093 79.8313 17.3257 79.2414 17.3257H79.0448V16.7359H80.9914C81.437 16.7359 81.7844 16.7949 82.0335 16.9128C82.2956 17.0177 82.4988 17.2012 82.643 17.4634C82.879 17.2536 83.2001 17.0505 83.6065 16.8538C84.0259 16.6441 84.5306 16.5392 85.1205 16.5392C85.6841 16.5392 86.1495 16.6703 86.5165 16.9325C86.7394 17.0898 86.9032 17.2799 87.0081 17.5027C87.1261 17.7255 87.185 17.8304 87.185 17.8173L86.1823 18.5841C86.0905 18.4662 85.9725 18.3416 85.8283 18.2106C85.7104 18.1057 85.5662 18.0139 85.3958 17.9353C85.2385 17.8566 85.0484 17.8173 84.8255 17.8173C84.4061 17.8173 84.0522 17.8763 83.7638 17.9943C83.4754 18.1122 83.246 18.2564 83.0756 18.4268L83.1149 18.7218C83.128 18.8135 83.1346 18.9184 83.1346 19.0364C83.1477 19.1412 83.1542 19.2527 83.1542 19.3706V25.9772H80.5981Z" fill="#0A3E19"/>
<path d="M91.7461 26.1739C90.9334 26.1739 90.2649 26.1018 89.7406 25.9576C89.2293 25.8134 88.8426 25.6168 88.5805 25.3677C88.3445 25.1449 88.2069 24.8237 88.1675 24.4042C88.1282 23.9848 88.1086 23.526 88.1086 23.0279H88.7967C88.9016 23.6571 89.1572 24.1945 89.5636 24.6402C89.9699 25.0728 90.5664 25.289 91.3529 25.289C92.0869 25.289 92.5982 25.1645 92.8865 24.9155C93.1749 24.6533 93.3191 24.3321 93.3191 23.952C93.3191 23.5719 93.1487 23.2704 92.8079 23.0475C92.4671 22.8116 92.0476 22.5822 91.5495 22.3593L90.527 21.9268C89.7405 21.5859 89.1245 21.1993 88.6788 20.7667C88.2331 20.3341 88.0102 19.7967 88.0102 19.1544C88.0102 18.3023 88.3642 17.6535 89.072 17.2078C89.7799 16.7621 90.6712 16.5392 91.7461 16.5392C92.5588 16.5392 93.2208 16.6113 93.732 16.7555C94.2564 16.8997 94.6496 17.0963 94.9118 17.3454C95.1477 17.5682 95.2854 17.8894 95.3247 18.3089C95.364 18.7283 95.3837 19.1871 95.3837 19.6852H94.6955C94.5906 19.056 94.335 18.5252 93.9287 18.0926C93.5223 17.6469 92.9259 17.4241 92.1394 17.4241C91.5495 17.4241 91.1235 17.5551 90.8613 17.8173C90.5991 18.0664 90.4681 18.381 90.4681 18.7611C90.4681 19.115 90.5926 19.4034 90.8416 19.6263C91.0907 19.836 91.4315 20.0326 91.8641 20.2161L93.0438 20.7077C93.9483 21.0878 94.63 21.4876 95.0887 21.9071C95.5475 22.3135 95.7769 22.864 95.7769 23.5588C95.7769 24.4108 95.3968 25.0597 94.6365 25.5053C93.8762 25.951 92.9128 26.1739 91.7461 26.1739Z" fill="#0A3E19"/>
<path d="M100.354 26.1739C99.2658 26.1739 98.4335 25.9314 97.8567 25.4463C97.293 24.9482 97.0112 24.3059 97.0112 23.5194C97.0112 22.8902 97.1554 22.3593 97.4438 21.9268C97.7453 21.4811 98.2827 21.1468 99.0561 20.924C99.8295 20.688 100.917 20.5701 102.32 20.5701H102.615C102.615 19.3903 102.451 18.571 102.123 18.1122C101.796 17.6535 101.337 17.4241 100.747 17.4241C100.301 17.4241 99.9016 17.5355 99.5477 17.7583C99.1938 17.9812 98.9381 18.4596 98.7808 19.1937H97.6994C97.6994 18.8529 97.7191 18.5055 97.7584 18.1516C97.8108 17.7976 97.955 17.4896 98.191 17.2274C98.4269 16.9653 98.8136 16.7883 99.3511 16.6965C99.9016 16.5917 100.498 16.5392 101.14 16.5392C102.425 16.5392 103.415 16.8801 104.109 17.5617C104.817 18.2433 105.171 19.2789 105.171 20.6684V25.9772H103.5L102.812 25.0924H102.713C102.648 25.1973 102.563 25.2956 102.458 25.3874C102.366 25.4791 102.268 25.5643 102.163 25.643C101.979 25.7872 101.737 25.9117 101.435 26.0166C101.134 26.1214 100.773 26.1739 100.354 26.1739ZM100.944 25.1907C101.245 25.1907 101.494 25.1252 101.691 24.9941C101.901 24.863 102.078 24.7188 102.222 24.5615C102.392 24.378 102.523 24.1617 102.615 23.9127V21.4549H102.32C101.376 21.4549 100.695 21.6253 100.275 21.9661C99.8688 22.3069 99.6656 22.8247 99.6656 23.5194C99.6656 24.07 99.7771 24.4894 99.9999 24.7778C100.236 25.0531 100.55 25.1907 100.944 25.1907Z" fill="#0A3E19"/>
<path d="M107.768 25.9772V19.292C107.768 18.7021 107.69 18.2302 107.532 17.8763C107.375 17.5093 107.002 17.3257 106.412 17.3257H106.215V16.7359H108.162C108.555 16.7359 108.896 16.7949 109.184 16.9128C109.473 17.0177 109.689 17.2078 109.833 17.483H109.912C110.148 17.2733 110.469 17.0636 110.875 16.8538C111.295 16.6441 111.799 16.5392 112.389 16.5392C112.887 16.5392 113.32 16.6113 113.687 16.7555C114.054 16.8866 114.355 17.0439 114.591 17.2274C114.84 17.3978 115.011 17.542 115.103 17.66C115.365 17.3716 115.706 17.116 116.125 16.8932C116.544 16.6572 117.134 16.5392 117.895 16.5392C118.983 16.5392 119.828 16.8276 120.431 17.4044C121.034 17.9681 121.336 18.8856 121.336 20.1571V25.9772H118.779V20.1375C118.779 19.1806 118.629 18.5055 118.327 18.1122C118.026 17.719 117.652 17.5224 117.206 17.5224C116.839 17.5224 116.505 17.5945 116.204 17.7387C115.915 17.8828 115.686 18.0598 115.515 18.2695C115.542 18.322 115.568 18.3875 115.594 18.4662C115.62 18.5317 115.647 18.6104 115.673 18.7021C115.712 18.8463 115.745 19.0429 115.771 19.292C115.81 19.5279 115.83 19.8163 115.83 20.1571V25.9772H113.274V20.1375C113.274 19.1806 113.123 18.5055 112.822 18.1122C112.52 17.719 112.147 17.5224 111.701 17.5224C111.399 17.5224 111.104 17.6141 110.816 17.7976C110.528 17.9681 110.318 18.1385 110.187 18.3089L110.246 18.5841C110.272 18.6759 110.292 18.7873 110.305 18.9184C110.318 19.0495 110.325 19.1937 110.325 19.351V25.9772H107.768Z" fill="#0A3E19"/>
<path d="M126.353 26.1739C125.265 26.1739 124.432 25.9314 123.856 25.4463C123.292 24.9482 123.01 24.3059 123.01 23.5194C123.01 22.8902 123.154 22.3593 123.443 21.9268C123.744 21.4811 124.282 21.1468 125.055 20.924C125.829 20.688 126.917 20.5701 128.319 20.5701H128.614C128.614 19.3903 128.45 18.571 128.122 18.1122C127.795 17.6535 127.336 17.4241 126.746 17.4241C126.3 17.4241 125.901 17.5355 125.547 17.7583C125.193 17.9812 124.937 18.4596 124.78 19.1937H123.698C123.698 18.8529 123.718 18.5055 123.757 18.1516C123.81 17.7976 123.954 17.4896 124.19 17.2274C124.426 16.9653 124.813 16.7883 125.35 16.6965C125.901 16.5917 126.497 16.5392 127.139 16.5392C128.424 16.5392 129.414 16.8801 130.108 17.5617C130.816 18.2433 131.17 19.2789 131.17 20.6684V25.9772H129.499L128.811 25.0924H128.712C128.647 25.1973 128.562 25.2956 128.457 25.3874C128.365 25.4791 128.267 25.5643 128.162 25.643C127.978 25.7872 127.736 25.9117 127.434 26.0166C127.133 26.1214 126.772 26.1739 126.353 26.1739ZM126.943 25.1907C127.244 25.1907 127.493 25.1252 127.69 24.9941C127.9 24.863 128.077 24.7188 128.221 24.5615C128.391 24.378 128.522 24.1617 128.614 23.9127V21.4549H128.319C127.375 21.4549 126.694 21.6253 126.274 21.9661C125.868 22.3069 125.665 22.8247 125.665 23.5194C125.665 24.07 125.776 24.4894 125.999 24.7778C126.235 25.0531 126.549 25.1907 126.943 25.1907Z" fill="#0A3E19"/>
<path d="M138.978 25.9772V15.5561C138.978 14.9662 138.893 14.4943 138.722 14.1404C138.565 13.7734 138.192 13.5899 137.602 13.5899H137.405V13H139.765C140.459 13 140.925 13.1835 141.161 13.5505C141.41 13.9176 141.534 14.5861 141.534 15.5561V18.8004H146.843V13H149.399V23.4211C149.399 24.011 149.478 24.4894 149.635 24.8565C149.805 25.2104 150.186 25.3874 150.775 25.3874H150.972V25.9772H148.613C147.931 25.9772 147.466 25.8003 147.217 25.4463C146.968 25.0924 146.843 24.4173 146.843 23.4211V19.6852H141.534V25.9772H138.978Z" fill="#0A3E19"/>
<path d="M154.925 26.1739C153.837 26.1739 153.005 25.9314 152.428 25.4463C151.864 24.9482 151.582 24.3059 151.582 23.5194C151.582 22.8902 151.726 22.3593 152.015 21.9268C152.316 21.4811 152.854 21.1468 153.627 20.924C154.401 20.688 155.489 20.5701 156.891 20.5701H157.186C157.186 19.3903 157.022 18.571 156.695 18.1122C156.367 17.6535 155.908 17.4241 155.318 17.4241C154.872 17.4241 154.473 17.5355 154.119 17.7583C153.765 17.9812 153.509 18.4596 153.352 19.1937H152.27C152.27 18.8529 152.29 18.5055 152.329 18.1516C152.382 17.7976 152.526 17.4896 152.762 17.2274C152.998 16.9653 153.385 16.7883 153.922 16.6965C154.473 16.5917 155.069 16.5392 155.711 16.5392C156.996 16.5392 157.986 16.8801 158.68 17.5617C159.388 18.2433 159.742 19.2789 159.742 20.6684V25.9772H158.071L157.383 25.0924H157.284C157.219 25.1973 157.134 25.2956 157.029 25.3874C156.937 25.4791 156.839 25.5643 156.734 25.643C156.55 25.7872 156.308 25.9117 156.006 26.0166C155.705 26.1214 155.344 26.1739 154.925 26.1739ZM155.515 25.1907C155.816 25.1907 156.065 25.1252 156.262 24.9941C156.472 24.863 156.649 24.7188 156.793 24.5615C156.963 24.378 157.094 24.1617 157.186 23.9127V21.4549H156.891C155.947 21.4549 155.266 21.6253 154.846 21.9661C154.44 22.3069 154.237 22.8247 154.237 23.5194C154.237 24.07 154.348 24.4894 154.571 24.7778C154.807 25.0531 155.122 25.1907 155.515 25.1907Z" fill="#0A3E19"/>
<path d="M162.025 25.9772V15.5561C162.025 14.9662 161.94 14.4943 161.769 14.1404C161.612 13.7734 161.238 13.5899 160.649 13.5899H160.452V13H162.811C163.506 13 163.971 13.1835 164.207 13.5505C164.456 13.9176 164.581 14.5861 164.581 15.5561V25.9772H162.025Z" fill="#0A3E19"/>
<path d="M169.749 26.1739C168.661 26.1739 167.828 25.9314 167.251 25.4463C166.688 24.9482 166.406 24.3059 166.406 23.5194C166.406 22.8902 166.55 22.3593 166.839 21.9268C167.14 21.4811 167.677 21.1468 168.451 20.924C169.224 20.688 170.312 20.5701 171.715 20.5701H172.01C172.01 19.3903 171.846 18.571 171.518 18.1122C171.19 17.6535 170.732 17.4241 170.142 17.4241C169.696 17.4241 169.296 17.5355 168.942 17.7583C168.588 17.9812 168.333 18.4596 168.176 19.1937H167.094C167.094 18.8529 167.114 18.5055 167.153 18.1516C167.206 17.7976 167.35 17.4896 167.586 17.2274C167.822 16.9653 168.208 16.7883 168.746 16.6965C169.296 16.5917 169.893 16.5392 170.535 16.5392C171.82 16.5392 172.809 16.8801 173.504 17.5617C174.212 18.2433 174.566 19.2789 174.566 20.6684V25.9772H172.895L172.206 25.0924H172.108C172.043 25.1973 171.957 25.2956 171.852 25.3874C171.761 25.4791 171.662 25.5643 171.558 25.643C171.374 25.7872 171.132 25.9117 170.83 26.0166C170.529 26.1214 170.168 26.1739 169.749 26.1739ZM170.338 25.1907C170.64 25.1907 170.889 25.1252 171.086 24.9941C171.295 24.863 171.472 24.7188 171.617 24.5615C171.787 24.378 171.918 24.1617 172.01 23.9127V21.4549H171.715C170.771 21.4549 170.089 21.6253 169.67 21.9661C169.264 22.3069 169.06 22.8247 169.06 23.5194C169.06 24.07 169.172 24.4894 169.395 24.7778C169.631 25.0531 169.945 25.1907 170.338 25.1907Z" fill="#0A3E19"/>
<path d="M176.849 25.9772V15.5561C176.849 14.9662 176.763 14.4943 176.593 14.1404C176.436 13.7734 176.062 13.5899 175.472 13.5899H175.276V13H177.635C178.33 13 178.795 13.1835 179.031 13.5505C179.28 13.9176 179.405 14.5861 179.405 15.5561V25.9772H176.849Z" fill="#0A3E19"/>
<path d="M70.3256 44.0945C69.1223 44.0945 68.2613 43.8312 67.7424 43.3047C67.2236 42.7781 66.9642 41.9314 66.9642 40.7647V35.2821L63.3379 43.3976H62.7915L58.3538 34.9723V43.3976H57.5259V33.1758H59.546L63.5532 40.7802L66.9476 33.1758H69.1168V40.7647C69.1168 41.7043 69.1996 42.4116 69.3652 42.8865C69.5418 43.3511 69.8619 43.6247 70.3256 43.7073V44.0945Z" fill="#0A3E19"/>
<path d="M73.8256 43.5525C72.9094 43.5525 72.2084 43.3615 71.7227 42.9794C71.248 42.5871 71.0107 42.0811 71.0107 41.4616C71.0107 40.966 71.1321 40.5479 71.3749 40.2071C71.6288 39.8561 72.0814 39.5928 72.7327 39.4173C73.384 39.2314 74.3003 39.1385 75.4814 39.1385H75.7298C75.7298 38.2092 75.5918 37.5639 75.3159 37.2026C75.0399 36.8412 74.6535 36.6605 74.1568 36.6605C73.7814 36.6605 73.4448 36.7483 73.1467 36.9238C72.8486 37.0993 72.6334 37.4762 72.5009 38.0544H71.5902C71.5902 37.7859 71.6068 37.5123 71.6399 37.2335C71.684 36.9548 71.8055 36.7121 72.0042 36.5056C72.2029 36.2991 72.5285 36.1597 72.9811 36.0874C73.4448 36.0048 73.947 35.9635 74.4879 35.9635C75.5698 35.9635 76.4032 36.232 76.9883 36.7689C77.5844 37.3058 77.8824 38.1215 77.8824 39.2159V43.3976H76.4749L75.8954 42.7007H75.8126C75.7574 42.7833 75.6857 42.8607 75.5974 42.933C75.5201 43.0052 75.4373 43.0724 75.349 43.1343C75.1944 43.2479 74.9902 43.346 74.7363 43.4286C74.4824 43.5112 74.1788 43.5525 73.8256 43.5525ZM74.3224 42.7781C74.5762 42.7781 74.786 42.7265 74.9516 42.6232C75.1282 42.52 75.2772 42.4064 75.3986 42.2825C75.5422 42.1379 75.6525 41.9676 75.7298 41.7714V39.8354H75.4814C74.6866 39.8354 74.1126 39.9697 73.7594 40.2381C73.4172 40.5066 73.246 40.9144 73.246 41.4616C73.246 41.8953 73.3399 42.2257 73.5275 42.4528C73.7262 42.6697 73.9912 42.7781 74.3224 42.7781Z" fill="#0A3E19"/>
<path d="M82.8349 43.5525C82.0622 43.5525 81.4164 43.3873 80.8976 43.0569C80.3898 42.7161 80.0034 42.2567 79.7385 41.6785C79.4846 41.1003 79.3577 40.4601 79.3577 39.758C79.3577 39.0456 79.4846 38.4054 79.7385 37.8375C80.0034 37.2593 80.4009 36.805 80.9307 36.4746C81.4606 36.1339 82.1229 35.9635 82.9177 35.9635C83.1827 35.9635 83.42 35.9894 83.6297 36.041C83.8505 36.0926 84.0382 36.1442 84.1927 36.1959C84.3583 36.2681 84.5129 36.3456 84.6564 36.4282V35.1892C84.6564 34.7245 84.5846 34.3528 84.4411 34.0741C84.3086 33.785 83.994 33.6404 83.4973 33.6404H83.3317V33.1758H85.3187C85.9038 33.1758 86.2957 33.3203 86.4944 33.6094C86.7041 33.8985 86.809 34.4251 86.809 35.1892V43.3976H85.4015L84.822 42.7007H84.7392C84.684 42.7833 84.6122 42.8607 84.5239 42.933C84.4466 43.0052 84.3638 43.0724 84.2755 43.1343C84.121 43.2479 83.9223 43.346 83.6794 43.4286C83.4476 43.5112 83.1661 43.5525 82.8349 43.5525ZM83.1661 42.8555C83.42 42.8555 83.6353 42.8039 83.8119 42.7007C83.9996 42.5974 84.1541 42.4838 84.2755 42.3599C84.3528 42.2876 84.419 42.2102 84.4742 42.1276C84.5405 42.045 84.6012 41.9521 84.6564 41.8488V37.1251C84.546 37.0425 84.4135 36.9651 84.259 36.8928C84.1375 36.8412 83.9885 36.7896 83.8119 36.7379C83.6463 36.6863 83.4586 36.6605 83.2489 36.6605C82.8405 36.6605 82.5148 36.7947 82.272 37.0632C82.0291 37.3316 81.8525 37.6982 81.7421 38.1628C81.6427 38.6274 81.5931 39.1592 81.5931 39.758C81.5931 40.3465 81.6427 40.8783 81.7421 41.3532C81.8414 41.8179 82.007 42.1844 82.2388 42.4528C82.4707 42.7213 82.7797 42.8555 83.1661 42.8555Z" fill="#0A3E19"/>
<path d="M91.0955 43.5525C90.1793 43.5525 89.4783 43.3615 88.9926 42.9794C88.5179 42.5871 88.2806 42.0811 88.2806 41.4616C88.2806 40.966 88.402 40.5479 88.6449 40.2071C88.8988 39.8561 89.3514 39.5928 90.0027 39.4173C90.654 39.2314 91.5702 39.1385 92.7514 39.1385H92.9998C92.9998 38.2092 92.8618 37.5639 92.5858 37.2026C92.3098 36.8412 91.9235 36.6605 91.4267 36.6605C91.0514 36.6605 90.7147 36.7483 90.4166 36.9238C90.1186 37.0993 89.9033 37.4762 89.7709 38.0544H88.8601C88.8601 37.7859 88.8767 37.5123 88.9098 37.2335C88.954 36.9548 89.0754 36.7121 89.2741 36.5056C89.4728 36.2991 89.7985 36.1597 90.2511 36.0874C90.7147 36.0048 91.217 35.9635 91.7579 35.9635C92.8397 35.9635 93.6731 36.232 94.2582 36.7689C94.8543 37.3058 95.1524 38.1215 95.1524 39.2159V43.3976H93.7449L93.1653 42.7007H93.0825C93.0274 42.7833 92.9556 42.8607 92.8673 42.933C92.79 43.0052 92.7072 43.0724 92.6189 43.1343C92.4644 43.2479 92.2601 43.346 92.0063 43.4286C91.7524 43.5112 91.4488 43.5525 91.0955 43.5525ZM91.5923 42.7781C91.8462 42.7781 92.0559 42.7265 92.2215 42.6232C92.3981 42.52 92.5472 42.4064 92.6686 42.2825C92.8121 42.1379 92.9225 41.9676 92.9998 41.7714V39.8354H92.7514C91.9566 39.8354 91.3825 39.9697 91.0293 40.2381C90.6871 40.5066 90.516 40.9144 90.516 41.4616C90.516 41.8953 90.6098 42.2257 90.7975 42.4528C90.9962 42.6697 91.2611 42.7781 91.5923 42.7781Z" fill="#0A3E19"/>
<path d="M97.3396 43.3976V38.1318C97.3396 37.6672 97.2734 37.2955 97.1409 37.0167C97.0084 36.7276 96.6938 36.5831 96.1971 36.5831H96.0315V36.1184H97.6708C98.0461 36.1184 98.3386 36.1649 98.5484 36.2578C98.7692 36.3404 98.9403 36.485 99.0617 36.6915C99.2604 36.5159 99.5419 36.3507 99.9062 36.1959C100.282 36.041 100.806 35.9635 101.479 35.9635C102.517 35.9635 103.301 36.1907 103.831 36.645C104.36 37.089 104.625 37.8117 104.625 38.8133V43.3976H102.473V38.7978C102.473 38.044 102.324 37.5123 102.026 37.2026C101.728 36.8928 101.352 36.7379 100.9 36.7379C100.546 36.7379 100.237 36.7844 99.9724 36.8773C99.7185 36.9702 99.5198 37.0838 99.3763 37.218L99.426 37.4349C99.4481 37.5071 99.4646 37.5949 99.4757 37.6982C99.4867 37.8014 99.4922 37.915 99.4922 38.0389V43.3976H97.3396Z" fill="#0A3E19"/>
<path d="M107.924 35.2821C107.504 35.2821 107.19 35.1634 106.98 34.9259C106.781 34.6884 106.682 34.4148 106.682 34.105C106.682 33.8366 106.77 33.6249 106.947 33.47C107.123 33.3152 107.339 33.2377 107.593 33.2377C108.012 33.2377 108.321 33.3565 108.52 33.5939C108.73 33.8314 108.834 34.105 108.834 34.4148C108.834 34.6832 108.746 34.8949 108.569 35.0498C108.393 35.2047 108.178 35.2821 107.924 35.2821ZM106.847 43.3976V38.1318C106.847 37.6672 106.776 37.2955 106.632 37.0167C106.5 36.7276 106.185 36.5831 105.688 36.5831H105.523V36.1184H107.51C108.095 36.1184 108.487 36.263 108.685 36.5521C108.895 36.8412 109 37.3678 109 38.1318V43.3976H106.847Z" fill="#0A3E19"/>
<path fill-rule="evenodd" clip-rule="evenodd" d="M15.7358 21.5508V36.0287H27.3483V28.7897H30.6662V27.2816H27.3483V21.5508H15.7358ZM19.3505 22.6076V27.8861C19.3505 27.8861 22.5176 28.1877 22.5176 25.1714C22.5176 22.4278 19.3505 22.6076 19.3505 22.6076ZM19.3505 29.0926V34.8234C19.3505 34.8234 22.8192 35.8791 22.8192 31.8072C22.8192 28.6258 19.3505 29.0926 19.3505 29.0926Z" fill="#105238"/>
<path d="M34.2833 36.0326H30.6638V21.5547H35.6406L38.0536 30.151L40.3158 21.5547H43.9353V36.0326H40.3158V26.3807L37.9028 36.0326H35.7914L34.2833 30.7542V36.0326Z" fill="#D5A41E"/>
<path fill-rule="evenodd" clip-rule="evenodd" d="M29.6076 45.0857C29.4556 45.0857 29.3041 45.0837 29.1531 45.0796V49.005C29.3044 49.0083 29.4562 49.0099 29.6083 49.0099C41.0192 49.0099 50.2695 39.7596 50.2695 28.3487C50.2695 16.9378 41.0192 7.6875 29.6083 7.6875C29.4562 7.6875 29.3044 7.68914 29.1531 7.69242V11.6115C29.3041 11.6075 29.4556 11.6055 29.6076 11.6055C38.8529 11.6055 46.3477 19.1003 46.3477 28.3456C46.3477 37.5909 38.8529 45.0857 29.6076 45.0857Z" fill="#D5A41E"/>
<path fill-rule="evenodd" clip-rule="evenodd" d="M8.94727 28.3465C8.94727 17.9089 16.6869 9.27902 26.7402 7.88281V11.8479C18.8611 13.208 12.8676 20.0758 12.8676 28.3434C12.8676 36.6111 18.8611 43.4788 26.7402 44.8389V48.8103C16.6869 47.4141 8.94727 38.7842 8.94727 28.3465Z" fill="#105238"/>
</svg>
