<svg width="257" height="265" viewBox="0 0 257 265" fill="none" xmlns="http://www.w3.org/2000/svg">
<path d="M402 201.523L356.252 154.239H313.657L345.945 121.943L343.702 59.3186L277.896 58.235L247.761 88.3667V42.6837L201.892 0L154.6 45.7484V88.3667L125.039 58.8056L58.5622 58.9338L60.4858 125.978L88.7384 154.239H46.9366L0 201.33L48.7634 247.4H88.7384L59.1746 276.961L59.295 343.438L126.347 341.514L154.6 313.262V355.063L201.699 402L247.761 353.237V313.296L280.057 345.584L342.681 343.333L343.757 277.532L313.625 247.4H359.316L402 201.523ZM247.761 107.19L283.321 71.6377L330.854 72.4176L332.438 116.627L294.834 154.239H247.761V107.19ZM167.908 51.3832L202.07 18.3465L234.456 48.4808V101.683L201.186 134.953L167.908 101.683V51.3832ZM73.6293 120.309L72.2553 72.2161L119.537 72.1271L154.6 107.19V154.239H107.559L73.6293 120.309ZM54.0528 234.084L19.0714 201.047L52.4615 167.544H102.044L135.314 200.814L102.044 234.084H54.0528ZM154.6 294.441L120.681 328.371L72.5772 329.745L72.4961 282.463L107.559 247.4H154.6V294.441ZM234.456 347.947L201.411 382.921L167.908 349.531V299.956L201.178 266.686L234.456 299.979V347.947ZM234.456 234.084V281.151L201.186 247.858L167.908 281.136V234.084H120.864L154.134 200.814L120.864 167.544H167.908V120.503L201.186 153.773L234.456 120.503V167.544H281.513L248.227 200.814L281.497 234.084H234.456ZM330.362 282.952L329.582 330.485L285.362 332.077L247.761 294.465V247.4H294.81L330.362 282.952ZM300.317 234.084L267.047 200.814L300.343 167.544H350.617L383.654 201.707L353.519 234.084H300.317Z" fill="#0A3E19" fill-opacity="0.3"/>
</svg>
