<svg width="38" height="37" viewBox="0 0 38 37" fill="none" xmlns="http://www.w3.org/2000/svg">
<path fill-rule="evenodd" clip-rule="evenodd" d="M24.1745 18.4995L26.9232 16.1342H29.9642L32.7129 18.4995L29.9642 20.8648H26.9232L24.1745 18.4995ZM34.4268 18.4995L30.3753 21.9852H27.417L29.5098 24.0792L29.9088 29.4077L24.5796 29.0088L22.4868 26.9158V29.8739L19.0005 33.9253L15.5142 29.8739V26.9158L13.4214 29.0088L8.09225 29.4077L8.49126 24.0792L10.584 21.9852H7.62573L3.57418 18.4995L7.62573 15.0128H10.584L8.49126 12.9198L8.09225 7.59031L13.4214 7.99023L15.5142 10.0832V7.12509L19.0005 3.07371L22.4868 7.12509V10.0832L24.5796 7.99023L29.9088 7.59031L29.5098 12.9198L27.417 15.0128H30.3753L34.4268 18.4995ZM19.0005 32.2121L16.6347 29.4629V26.4224L19.0005 23.6732L21.3653 26.4224V29.4629L19.0005 32.2121ZM19.0005 21.9601L16.2377 25.1704L16.5551 20.9452L12.3302 21.2617L15.5404 18.4995L12.3302 15.7373L16.5551 16.0538L16.2377 11.8286L19.0005 15.0389L21.7633 11.8286L21.4459 16.0538L25.6708 15.7373L22.4606 18.4995L25.6708 21.2617L21.4459 20.9452L21.7633 25.1704L19.0005 21.9601ZM19.0005 37L13.5816 31.5811C11.0274 31.5811 8.47312 31.5811 5.91886 31.5811V23.9184L0.5 18.4995L5.91886 13.0806V5.41793H13.5816L19.0005 0L24.4184 5.41793C26.9736 5.41793 29.5269 5.41793 32.0811 5.41793V13.0806L37.5 18.4995L32.0811 23.9184V31.5811H24.4184L19.0005 37ZM28.6956 28.1949L25.0793 27.9236L22.9311 25.7753L22.6601 22.159L26.2764 22.4293L28.4246 24.5786L28.6956 28.1949ZM5.2881 18.4995L8.03683 16.1342H11.0778L13.8265 18.4995L11.0778 20.8648H8.03683L5.2881 18.4995ZM9.3054 28.1949L9.57644 24.5786L11.7246 22.4293L15.3409 22.159L15.0709 25.7753L12.9217 27.9236L9.3054 28.1949ZM19.0005 13.3257L16.6347 10.5766V7.53505L19.0005 4.7869L21.3653 7.53505V10.5766L19.0005 13.3257ZM28.6956 8.80412L28.4246 12.4204L26.2764 14.5697L22.6601 14.84L22.9311 11.2237L25.0793 9.07541L28.6956 8.80412ZM9.3054 8.80412L12.9217 9.07541L15.0709 11.2237L15.3409 14.84L11.7246 14.5697L9.57644 12.4204L9.3054 8.80412Z" fill="#0A3E19"/>
</svg>
